<svg width="0" height="0" class="hidden">
  <symbol fill="none" xmlns="http://www.w3.org/2000/svg" viewBox="0 0 32 33" id="AC">
    <mask id="a" fill="#fff">
      <path d="M15.554 5.3c-1.351 0-2.66.48-3.705 1.359a6.025 6.025 0 0 0-2.027 3.46l-.104.539a.946.946 0 0 0 .119.71.912.912 0 0 0 .58.407.88.88 0 0 0 .69-.146.913.913 0 0 0 .375-.61l.106-.537a4.162 4.162 0 0 1 1.563-2.513 3.973 3.973 0 0 1 5.399.55 4.21 4.21 0 0 1 1.05 2.78 4.21 4.21 0 0 1-1.186 2.937 4 4 0 0 1-2.864 1.218H2.5a.889.889 0 0 0-.636.27.935.935 0 0 0-.264.653c0 .245.095.48.264.653.168.173.397.27.636.27h13.05a5.785 5.785 0 0 0 4.044-1.808 6.083 6.083 0 0 0 1.665-4.19c0-1.566-.596-3.07-1.662-4.192a5.784 5.784 0 0 0-4.043-1.81ZM25.9 13.608a4.444 4.444 0 0 0-3.182 1.351 4.676 4.676 0 0 0-1.318 3.264c0 .245.095.48.264.653.168.173.397.27.636.27a.889.889 0 0 0 .636-.27.935.935 0 0 0 .264-.653c0-.548.158-1.083.455-1.538.297-.456.718-.81 1.212-1.02a2.637 2.637 0 0 1 1.56-.158 2.68 2.68 0 0 1 1.382.758c.378.387.635.88.74 1.418.103.537.05 1.094-.154 1.6-.205.506-.55.938-.995 1.243a2.652 2.652 0 0 1-1.5.466H2.5a.889.889 0 0 0-.636.27.935.935 0 0 0-.264.653c0 .245.095.48.264.653.168.173.397.27.636.27h17.55a2.222 2.222 0 0 1 1.59.68c.42.433.657 1.02.656 1.633a2.338 2.338 0 0 1-.663 1.63 2.221 2.221 0 0 1-1.592.673 2.241 2.241 0 0 1-1.469-.55 2.348 2.348 0 0 1-.775-1.392l-.01-.056a.94.94 0 0 0-.357-.619.892.892 0 0 0-.682-.167.887.887 0 0 0-.592.385.936.936 0 0 0-.143.704l.009.055c.16.975.651 1.86 1.387 2.498a4.015 4.015 0 0 0 2.632.988 4.006 4.006 0 0 0 2.868-1.216 4.216 4.216 0 0 0 1.191-2.938 4.21 4.21 0 0 0-.682-2.308H25.9a4.444 4.444 0 0 0 3.182-1.351 4.676 4.676 0 0 0 1.318-3.264 4.676 4.676 0 0 0-1.318-3.263 4.444 4.444 0 0 0-3.182-1.352Z"></path>
    </mask>
    <path d="M15.554 5.3c-1.351 0-2.66.48-3.705 1.359a6.025 6.025 0 0 0-2.027 3.46l-.104.539a.946.946 0 0 0 .119.71.912.912 0 0 0 .58.407.88.88 0 0 0 .69-.146.913.913 0 0 0 .375-.61l.106-.537a4.162 4.162 0 0 1 1.563-2.513 3.973 3.973 0 0 1 5.399.55 4.21 4.21 0 0 1 1.05 2.78 4.21 4.21 0 0 1-1.186 2.937 4 4 0 0 1-2.864 1.218H2.5a.889.889 0 0 0-.636.27.935.935 0 0 0-.264.653c0 .245.095.48.264.653.168.173.397.27.636.27h13.05a5.785 5.785 0 0 0 4.044-1.808 6.083 6.083 0 0 0 1.665-4.19c0-1.566-.596-3.07-1.662-4.192a5.784 5.784 0 0 0-4.043-1.81ZM25.9 13.608a4.444 4.444 0 0 0-3.182 1.351 4.676 4.676 0 0 0-1.318 3.264c0 .245.095.48.264.653.168.173.397.27.636.27a.889.889 0 0 0 .636-.27.935.935 0 0 0 .264-.653c0-.548.158-1.083.455-1.538.297-.456.718-.81 1.212-1.02a2.637 2.637 0 0 1 1.56-.158 2.68 2.68 0 0 1 1.382.758c.378.387.635.88.74 1.418.103.537.05 1.094-.154 1.6-.205.506-.55.938-.995 1.243a2.652 2.652 0 0 1-1.5.466H2.5a.889.889 0 0 0-.636.27.935.935 0 0 0-.264.653c0 .245.095.48.264.653.168.173.397.27.636.27h17.55a2.222 2.222 0 0 1 1.59.68c.42.433.657 1.02.656 1.633a2.338 2.338 0 0 1-.663 1.63 2.221 2.221 0 0 1-1.592.673 2.241 2.241 0 0 1-1.469-.55 2.348 2.348 0 0 1-.775-1.392l-.01-.056a.94.94 0 0 0-.357-.619.892.892 0 0 0-.682-.167.887.887 0 0 0-.592.385.936.936 0 0 0-.143.704l.009.055c.16.975.651 1.86 1.387 2.498a4.015 4.015 0 0 0 2.632.988 4.006 4.006 0 0 0 2.868-1.216 4.216 4.216 0 0 0 1.191-2.938 4.21 4.21 0 0 0-.682-2.308H25.9a4.444 4.444 0 0 0 3.182-1.351 4.676 4.676 0 0 0 1.318-3.264 4.676 4.676 0 0 0-1.318-3.263 4.444 4.444 0 0 0-3.182-1.352Z" fill="#101828"></path>
    <path d="m15.554 5.3.128-4.998L15.617.3h-.064v5Zm-5.732 4.818L4.915 9.16l-.001.008 4.909.95Zm-.104.54 4.873 1.121.02-.085.016-.086-4.909-.95Zm1.764.361-4.905-.97-.018.09-.014.089 4.937.791Zm.106-.537-4.904-.971v.002l4.904.97Zm8.012.816h5v-.012l-5 .012Zm-4.05 4.156v5h.002l-.002-5Zm-13.95.923h-5 5Zm13.95.923v5h.063l.063-.002-.126-4.998Zm7.65.923h5-5ZM1.6 21.915h-5 5Zm18.45.924.01-5h-.01v5Zm-.009 4.615.01-5h-.014l.004 5Zm-2.244-1.942-4.936.802.002.008v.008l4.934-.818Zm-.01-.056-4.956.655.01.074.011.073 4.936-.802Zm-1.774.303 4.935-.802-.012-.072-.014-.071-4.91.945Zm.009.055-4.936.802.002.009 4.934-.81Zm4.02 3.486.001-5h-.003l.001 5Zm4.058-4.154 5 .009v-.009h-5Zm-.682-2.308v-5h-9.235l5.048 7.733 4.187-2.733ZM15.553.3c-2.542 0-4.987.905-6.922 2.532l6.435 7.654a.758.758 0 0 1 .489-.186l-.002-10ZM8.63 2.832A11.025 11.025 0 0 0 4.915 9.16l9.815 1.917c.05-.255.18-.459.336-.59L8.631 2.831ZM4.914 9.168l-.105.539 9.818 1.901.104-.539-9.817-1.901Zm-.069.368a5.946 5.946 0 0 0-.07 2.312l9.864-1.646a4.053 4.053 0 0 1-.048 1.577L4.845 9.536Zm-.07 2.312c.128.768.406 1.507.824 2.173l8.476-5.306c.286.458.476.964.564 1.487l-9.864 1.646Zm.824 2.173c.417.667.967 1.25 1.621 1.708l5.733-8.194c.456.319.835.722 1.122 1.18l-8.476 5.306ZM7.22 15.73c.655.458 1.4.781 2.193.944l2.01-9.796c.554.114 1.075.34 1.53.658L7.22 15.73Zm2.193.944c.792.162 1.61.16 2.4-.008L9.74 6.882a4.122 4.122 0 0 1 1.683-.005l-2.01 9.796Zm2.4-.008A5.89 5.89 0 0 0 14 15.707L8.213 7.55a4.112 4.112 0 0 1 1.526-.669l2.075 9.783ZM14 15.707a5.915 5.915 0 0 0 1.61-1.718L7.1 8.737c.284-.46.66-.865 1.114-1.186L14 15.706Zm1.61-1.718c.413-.669.687-1.41.81-2.178l-9.874-1.583c.084-.524.27-1.03.554-1.49l8.51 5.251Zm.778-2 .106-.537-9.81-1.94-.106.538 9.81 1.939Zm.106-.535a.838.838 0 0 1-.324.502l-6.035-7.974a9.163 9.163 0 0 0-3.45 5.529l9.809 1.943Zm-.324.502c-.192.145-.45.225-.722.197l1.013-9.949a8.973 8.973 0 0 0-6.326 1.778l6.035 7.974Zm-.722.197a.99.99 0 0 1-.641-.32l7.488-6.628a9.011 9.011 0 0 0-5.834-3l-1.013 9.948Zm-.641-.32a.79.79 0 0 1-.206-.523l10-.024a9.21 9.21 0 0 0-2.306-6.081l-7.488 6.628Zm-.206-.535a.79.79 0 0 1 .233-.552l7.162 6.98a9.21 9.21 0 0 0 2.605-6.428h-10Zm.233-.552a1 1 0 0 1 .715-.292l.004 10a9.001 9.001 0 0 0 6.443-2.728l-7.162-6.98Zm.717-.292H2.5v10h13.05v-10Zm-13.05 0c-1.606 0-3.12.655-4.216 1.78l7.16 6.98a4.111 4.111 0 0 1-2.944 1.24v-10Zm-4.216 1.78A5.935 5.935 0 0 0-3.4 16.377h10a4.065 4.065 0 0 1-1.156 2.838l-7.16-6.981ZM-3.4 16.377c0 1.53.592 3.023 1.684 4.143l7.16-6.98A4.065 4.065 0 0 1 6.6 16.376h-10Zm1.684 4.143A5.889 5.889 0 0 0 2.5 22.3v-10c1.129 0 2.185.461 2.944 1.24l-7.16 6.98ZM2.5 22.3h13.05v-10H2.5v10Zm13.176-.002a10.783 10.783 0 0 0 7.54-3.359l-7.244-6.894a.786.786 0 0 1-.547.257l.25 9.996Zm7.54-3.359a11.083 11.083 0 0 0 3.043-7.636l-10-.003c0 .301-.116.566-.287.745l7.244 6.894Zm3.043-7.636c0-2.83-1.076-5.574-3.038-7.637l-7.248 6.889c.17.179.286.444.286.745l10 .003ZM23.22 3.666A10.784 10.784 0 0 0 15.682.302l-.257 9.996a.785.785 0 0 1 .548.257l7.248-6.89Zm2.68 4.942a9.444 9.444 0 0 0-6.763 2.861l7.16 6.981a.558.558 0 0 1-.398.158v-10Zm-6.763 2.861a9.676 9.676 0 0 0-2.738 6.754h10a.326.326 0 0 1-.102.227l-7.16-6.981ZM16.4 18.223c0 1.53.592 3.023 1.684 4.143l7.16-6.98a4.065 4.065 0 0 1 1.156 2.837h-10Zm1.684 4.143a5.889 5.889 0 0 0 4.216 1.78v-10c1.129 0 2.185.461 2.944 1.24l-7.16 6.98Zm4.216 1.78c1.606 0 3.12-.655 4.216-1.78l-7.16-6.98a4.111 4.111 0 0 1 2.944-1.24v10Zm4.216-1.78a5.935 5.935 0 0 0 1.684-4.143h-10c0-1.04.402-2.064 1.157-2.838l7.16 6.981Zm1.684-4.143c0 .414-.119.828-.355 1.19l-8.38-5.458a7.82 7.82 0 0 0-1.265 4.268h10Zm-.355 1.19a2.285 2.285 0 0 1-1.023.854l-3.91-9.204a7.717 7.717 0 0 0-3.446 2.892l8.378 5.459Zm-1.023.854a2.363 2.363 0 0 1-1.395.14l2-9.799a7.637 7.637 0 0 0-4.515.455l3.91 9.204Zm-1.395.14a2.32 2.32 0 0 1-1.198-.652l7.16-6.98a7.68 7.68 0 0 0-3.963-2.167l-1.999 9.798Zm-1.198-.652a2.207 2.207 0 0 1-.59-1.12l9.818-1.904a7.793 7.793 0 0 0-2.068-3.957l-7.16 6.981Zm-.59-1.12c-.078-.408-.039-.833.12-1.225l9.272 3.745a7.835 7.835 0 0 0 .426-4.424l-9.817 1.904Zm.12-1.225c.158-.393.435-.749.815-1.009l5.653 8.249a7.756 7.756 0 0 0 2.804-3.495l-9.273-3.745Zm.815-1.009a2.348 2.348 0 0 1 1.326-.409v10a7.652 7.652 0 0 0 4.327-1.342l-5.653-8.249Zm1.326-.409H2.5v10h23.4v-10Zm-23.4 0c-1.606 0-3.12.656-4.216 1.78l7.16 6.981a4.111 4.111 0 0 1-2.944 1.24v-10Zm-4.216 1.78A5.935 5.935 0 0 0-3.4 21.915h10a4.065 4.065 0 0 1-1.156 2.838l-7.16-6.98ZM-3.4 21.915c0 1.531.592 3.024 1.684 4.144l7.16-6.981A4.065 4.065 0 0 1 6.6 21.915h-10Zm1.684 4.144a5.889 5.889 0 0 0 4.216 1.78v-10c1.129 0 2.185.46 2.944 1.239l-7.16 6.98Zm4.216 1.78h17.55v-10H2.5v10Zm17.54 0A2.778 2.778 0 0 1 18.053 27l7.174-6.967a7.222 7.222 0 0 0-5.167-2.195l-.02 10ZM18.053 27a2.662 2.662 0 0 1-.757-1.86l10 .02a7.338 7.338 0 0 0-2.07-5.127l-7.173 6.967Zm-.757-1.86a2.662 2.662 0 0 1 .764-1.857l7.146 6.995a7.338 7.338 0 0 0 2.09-5.119l-10-.019Zm.764-1.857a2.779 2.779 0 0 1 1.991-.83l-.02 10a7.221 7.221 0 0 0 5.175-2.175l-7.146-6.995Zm1.977-.83c.68 0 1.319.247 1.807.669l-6.543 7.562a7.241 7.241 0 0 0 4.744 1.769l-.008-10Zm1.807.669c.485.42.787.98.885 1.57l-9.865 1.637a7.348 7.348 0 0 0 2.437 4.355l6.543-7.562Zm.888 1.587-.01-.056-9.87 1.604.01.056 9.87-1.604Zm.012.091A5.94 5.94 0 0 0 22 22.61l-8.658 5.002a4.06 4.06 0 0 1-.51-1.5l9.913-1.31ZM22 22.61a5.916 5.916 0 0 0-1.552-1.759l-6.034 7.975a4.085 4.085 0 0 1-1.072-1.214l8.658-5.003Zm-1.552-1.759a5.89 5.89 0 0 0-2.147-1.023l-2.389 9.71a4.11 4.11 0 0 1-1.498-.712l6.034-7.975ZM18.3 19.827a5.878 5.878 0 0 0-2.393-.086l1.682 9.858a4.123 4.123 0 0 1-1.678-.061l2.389-9.71Zm-2.393-.086a5.885 5.885 0 0 0-2.219.868l5.452 8.383c-.466.303-.993.511-1.551.607l-1.682-9.858Zm-2.219.868a5.913 5.913 0 0 0-1.677 1.649l8.289 5.594a4.09 4.09 0 0 1-1.16 1.14l-5.452-8.383Zm-1.677 1.649a5.937 5.937 0 0 0-.896 2.14l9.8 1.989a4.065 4.065 0 0 1-.615 1.465l-8.289-5.594Zm-.896 2.14a5.945 5.945 0 0 0-.012 2.306l9.82-1.89c.1.52.097 1.054-.008 1.573l-9.8-1.99Zm-.038 2.163.01.055 9.87-1.604-.009-.055-9.87 1.604Zm.01.064a9.205 9.205 0 0 0 3.046 5.465l6.552-7.555c.16.138.244.31.27.47l-9.867 1.62Zm3.046 5.465a9.014 9.014 0 0 0 5.91 2.21l-.003-10c.255 0 .482.093.645.235l-6.552 7.555Zm5.906 2.21a9.006 9.006 0 0 0 6.446-2.721l-7.152-6.989c.166-.17.42-.29.71-.29l-.004 10Zm6.446-2.721a9.215 9.215 0 0 0 2.615-6.424l-10-.018c0-.181.07-.38.232-.547l7.153 6.989Zm2.615-6.433a9.21 9.21 0 0 0-1.495-5.04L19.23 25.57a.791.791 0 0 1-.13-.425h10Zm-5.682 2.692H25.9v-10h-2.482v10Zm2.482 0a9.444 9.444 0 0 0 6.762-2.86l-7.16-6.982a.558.558 0 0 1 .398-.157v10Zm6.762-2.86a9.676 9.676 0 0 0 2.738-6.755h-10c0-.062.023-.146.102-.227l7.16 6.981Zm2.738-6.755c0-2.51-.97-4.942-2.738-6.754l-7.16 6.981a.326.326 0 0 1-.102-.227h10Zm-2.738-6.754A9.444 9.444 0 0 0 25.9 8.608v10a.558.558 0 0 1-.398-.158l7.16-6.981Z" fill="#101828" mask="url(#a)"></path>
  </symbol>
  <symbol fill="none" xmlns="http://www.w3.org/2000/svg" viewBox="0 0 20 20" id="airConditioner">
    <g clip-path="url(#a)" stroke="#101828" stroke-width="1.5" stroke-linecap="round" stroke-linejoin="round">
      <path d="M17.857.714H2.143A1.429 1.429 0 0 0 .714 2.143v7.143a1.429 1.429 0 0 0 1.429 1.428h15.714a1.428 1.428 0 0 0 1.429-1.428V2.143A1.428 1.428 0 0 0 17.857.714z"></path>
      <path d="M15.714 10.714V7.857a1.428 1.428 0 0 0-1.428-1.428H5.714a1.429 1.429 0 0 0-1.428 1.428v2.857m-.715 7.143h.143a2 2 0 0 0 2-2v-1.571m10.715 3.571h-.143a2 2 0 0 1-2-2v-1.571m-4.286 5v-5"></path>
    </g>
    <defs>
      <clipPath id="a">
        <path fill="#fff" d="M0 0h20v20H0z"></path>
      </clipPath>
    </defs>
  </symbol>
  <symbol fill="none" xmlns="http://www.w3.org/2000/svg" viewBox="0 0 32 32" id="batch">
    <path d="m5.333 5.333 3.334 3.334m9.333 0A6.6 6.6 0 0 0 8.667 18M20 6.667 6.667 20m12 2.667v.013m-5.334-1.347v.014m4-4.014v.014m4-4.014v.014m-6.666 13.32v.013m8-8.013v.013m4-4.013v.013" stroke="#101828" stroke-width="2" stroke-linecap="round" stroke-linejoin="round"></path>
  </symbol>
  <symbol fill="none" xmlns="http://www.w3.org/2000/svg" viewBox="0 0 20 20" id="beds">
    <path d="M1.875 16.25v-4.375a2.507 2.507 0 0 1 2.5-2.5h11.25a2.507 2.507 0 0 1 2.5 2.5v4.375M15 9.375H3.75V5.312A1.567 1.567 0 0 1 5.313 3.75h9.375a1.567 1.567 0 0 1 1.562 1.563v4.062H15z" stroke="#101828" stroke-width="1.4" stroke-linecap="round" stroke-linejoin="round"></path>
    <path d="M1.875 16.25v-.313A.94.94 0 0 1 2.813 15h14.374a.94.94 0 0 1 .938.938v.312M4.375 9.375V8.75a1.254 1.254 0 0 1 1.25-1.25H8.75A1.254 1.254 0 0 1 10 8.75m0 0v.625m0-.625a1.253 1.253 0 0 1 1.25-1.25h3.125a1.254 1.254 0 0 1 1.25 1.25v.625" stroke="#101828" stroke-width="1.4" stroke-linecap="round" stroke-linejoin="round"></path>
  </symbol>
  <symbol fill="none" xmlns="http://www.w3.org/2000/svg" viewBox="0 0 20 20" id="calendar">
    <path d="M15.833 3.333H4.167C3.247 3.333 2.5 4.08 2.5 5v11.667c0 .92.746 1.666 1.667 1.666h11.666c.92 0 1.667-.746 1.667-1.666V5c0-.92-.746-1.667-1.667-1.667zM13.333 1.667V5M6.667 1.667V5M2.5 8.333h15" stroke="#101828" stroke-width="1.5" stroke-linecap="round" stroke-linejoin="round"></path>
  </symbol>
  <symbol fill="none" xmlns="http://www.w3.org/2000/svg" viewBox="0 0 40 28" id="camper-1">
    <path d="M2.282 1.575H13.14a.346.346 0 0 0 .243-.099L14.426.46A1.615 1.615 0 0 1 15.561 0h16.465a2.3 2.3 0 0 1 1.904.994l1.973 2.888c.28.41.306.934.068 1.368a1.37 1.37 0 0 1-1.205.704H26.28v.837h4.346a2.87 2.87 0 0 1 2.64 1.702l2.545 5.818 2.23.87c1.19.465 1.959 1.573 1.959 2.824v5.388c0 .804-.67 1.458-1.494 1.458h-2.594C35.611 26.634 34.02 28 32.106 28S28.6 26.634 28.3 24.85H14.122C13.82 26.635 12.228 28 10.315 28c-1.912 0-3.504-1.366-3.806-3.15h-5.18C.595 24.85 0 24.27 0 23.556V3.8c0-1.228 1.023-2.226 2.282-2.226zM32.106 26.77c1.432 0 2.598-1.137 2.598-2.535 0-1.397-1.166-2.534-2.598-2.534-1.433 0-2.598 1.137-2.598 2.534 0 1.398 1.165 2.535 2.598 2.535zm-5.826-3.15h2.019l.017-.091.012-.062c.01-.048.022-.096.034-.144l.008-.03c.015-.057.031-.113.05-.17.004-.016.01-.032.016-.049a4.18 4.18 0 0 1 .065-.18l.041-.1.03-.066.043-.095.033-.066.048-.09.035-.065.052-.088.038-.062.058-.088.039-.057c.022-.031.044-.062.068-.092l.035-.048a4.466 4.466 0 0 1 .225-.266l.037-.038.084-.087.05-.046a3.456 3.456 0 0 1 .211-.188l.058-.045a4.16 4.16 0 0 1 .141-.107l.085-.059.06-.04c.03-.02.06-.038.091-.057l.06-.036c.033-.02.067-.038.101-.057l.052-.03a4.71 4.71 0 0 1 .148-.073l.011-.005c.054-.026.108-.05.163-.072.017-.008.036-.014.053-.021l.114-.044.065-.023a4.02 4.02 0 0 1 .458-.126l.076-.016a3.637 3.637 0 0 1 .294-.044l.072-.008.125-.01c.02 0 .041-.003.062-.003a3.497 3.497 0 0 1 .378 0c.02 0 .04.002.062.004.041.002.083.005.125.01.024.001.048.005.072.007a3.454 3.454 0 0 1 .37.06 3.79 3.79 0 0 1 .458.126l.065.023.114.044.053.02c.055.023.11.047.163.073l.011.005c.05.024.099.048.147.074l.052.029c.035.018.069.037.102.057l.06.036.09.057.061.04.085.06a2.876 2.876 0 0 1 .141.106l.058.045a5.09 5.09 0 0 1 .211.188l.05.046.084.087.037.038c.04.042.078.086.115.13l.015.018c.032.039.064.077.095.118l.035.048.068.092.039.057.058.088.038.062.051.088.036.065.048.09.033.066c.015.032.03.063.043.095l.03.065a2.467 2.467 0 0 1 .065.164l.041.117.017.05c.017.056.034.112.05.17l.007.03c.012.047.023.095.033.143l.013.062.017.091h2.593a.23.23 0 0 0 .233-.227v-2.578h-.984v-1.23h.984v-1.58c0-.745-.458-1.405-1.167-1.682l-2.36-.92H26.28v8.217zm0-9.448h8.1l-2.273-5.197a1.61 1.61 0 0 0-1.481-.954H26.28v6.151zM10.315 26.77c1.433 0 2.598-1.137 2.598-2.535 0-1.397-1.165-2.534-2.598-2.534-.045 0-.089.001-.133.004-1.194.059-2.177.908-2.412 2.02a2.606 2.606 0 0 0-.049.38 2.24 2.24 0 0 0-.003.13c0 1.398 1.165 2.535 2.597 2.535zm-9.054-7.185h.984v1.23H1.26v2.74c0 .036.03.065.067.065h5.18l.018-.09c.004-.021.007-.043.012-.064.01-.047.02-.094.033-.14l.008-.033c.015-.057.032-.113.05-.17l.017-.05.04-.116.025-.063a5.547 5.547 0 0 1 .07-.167l.043-.093c.01-.023.022-.045.034-.067l.046-.09.037-.065a4.985 4.985 0 0 1 .186-.295l.067-.091.037-.05c.03-.039.06-.077.093-.115l.016-.02c.038-.044.076-.088.115-.13l.038-.04.084-.085.05-.047.077-.073.055-.047.079-.066.058-.047a4.97 4.97 0 0 1 .14-.106c.028-.02.056-.04.085-.058l.06-.041.09-.057.06-.036.102-.057.053-.03c.048-.025.097-.049.146-.072.004-.002.008-.005.013-.006.053-.026.108-.05.162-.072l.054-.021.113-.044.066-.023a3.45 3.45 0 0 1 .105-.034 3.946 3.946 0 0 1 .353-.091l.075-.017a3.62 3.62 0 0 1 .294-.044l.072-.008.126-.01c.02 0 .04-.003.061-.003a3.5 3.5 0 0 1 .378 0c.021 0 .041.002.062.004.042.002.084.005.125.01.024.001.048.005.072.007a3.526 3.526 0 0 1 .188.026l.106.018.076.016a3.79 3.79 0 0 1 .281.07l.072.022c.035.01.07.022.104.034l.066.023.114.044.053.02a3.966 3.966 0 0 1 .321.152l.053.029.102.057.06.036.09.057.061.04.084.06a2.428 2.428 0 0 1 .14.105l.059.047c.027.021.053.044.079.066l.054.047.079.074.049.046.084.086.037.04a4.111 4.111 0 0 1 .225.265l.036.048c.023.03.046.061.067.092l.039.058a3.468 3.468 0 0 1 .148.237l.036.065.047.09.033.066.044.095.029.065c.015.034.028.068.041.102l.024.062c.015.039.028.078.041.118l.017.048c.018.056.034.114.05.17l.006.028c.013.048.024.097.035.146l.011.06.019.093h10.896V5.34c0-.34.282-.616.63-.616h9.117c.015 0 .063 0 .093-.055a.092.092 0 0 0-.006-.105l-1.972-2.887a1.033 1.033 0 0 0-.855-.447H15.56a.346.346 0 0 0-.243.099l-1.043 1.017a1.615 1.615 0 0 1-1.135.459H2.282a1.01 1.01 0 0 0-1.021.996v15.784z" fill="#101828"></path>
    <path d="M17.601 6.298h3.989c.805 0 1.461.64 1.461 1.426v13.165c0 .34-.282.615-.63.615h-5.65a.623.623 0 0 1-.63-.615V7.724c0-.787.654-1.426 1.46-1.426zm-.2 13.975h4.389V13.04H17.4v7.233zm0-8.463h4.389V7.723a.198.198 0 0 0-.2-.196H17.6c-.11 0-.2.088-.2.196v4.085h.001zM4.844 6.298h7.712c.892 0 1.617.708 1.617 1.577v3.588c0 .87-.726 1.577-1.617 1.577H4.843c-.891 0-1.616-.707-1.616-1.577V7.875c0-.87.725-1.577 1.617-1.577zm-.356 5.165c0 .19.16.347.356.347h7.712a.352.352 0 0 0 .356-.347V7.875c0-.191-.16-.347-.356-.347H4.843a.352.352 0 0 0-.355.347v3.588z" fill="#101828"></path>
  </symbol>
  <symbol fill="none" xmlns="http://www.w3.org/2000/svg" viewBox="0 0 40 28" id="camper-2">
    <path d="M2.282 1.575H13.14a.346.346 0 0 0 .243-.099L14.426.46A1.615 1.615 0 0 1 15.561 0h16.465a2.3 2.3 0 0 1 1.904.994l1.973 2.888c.28.41.306.934.068 1.368a1.37 1.37 0 0 1-1.205.704H26.28v.837h4.346a2.87 2.87 0 0 1 2.64 1.702l2.545 5.818 2.23.87c1.19.465 1.959 1.573 1.959 2.824v5.388c0 .804-.67 1.458-1.494 1.458h-2.594C35.611 26.634 34.02 28 32.106 28S28.6 26.634 28.3 24.85H14.122C13.82 26.635 12.228 28 10.315 28c-1.912 0-3.504-1.366-3.806-3.15h-5.18C.595 24.85 0 24.27 0 23.556V3.8c0-1.228 1.023-2.226 2.282-2.226zM32.106 26.77c1.432 0 2.598-1.137 2.598-2.535 0-1.397-1.166-2.534-2.598-2.534-1.433 0-2.598 1.137-2.598 2.534 0 1.398 1.165 2.535 2.598 2.535zm-5.826-3.15h2.019l.017-.091.012-.062c.01-.048.022-.096.034-.144l.008-.03c.015-.057.031-.113.05-.17.004-.016.01-.032.016-.049a4.18 4.18 0 0 1 .065-.18l.041-.1.03-.066.043-.095.033-.066.048-.09.035-.065.052-.088.038-.062.058-.088.039-.057c.022-.031.044-.062.068-.092l.035-.048a4.466 4.466 0 0 1 .225-.266l.037-.038.084-.087.05-.046a3.456 3.456 0 0 1 .211-.188l.058-.045a4.16 4.16 0 0 1 .141-.107l.085-.059.06-.04c.03-.02.06-.038.091-.057l.06-.036c.033-.02.067-.038.101-.057l.052-.03a4.71 4.71 0 0 1 .148-.073l.011-.005c.054-.026.108-.05.163-.072.017-.008.036-.014.053-.021l.114-.044.065-.023a4.02 4.02 0 0 1 .458-.126l.076-.016a3.637 3.637 0 0 1 .294-.044l.072-.008.125-.01c.02 0 .041-.003.062-.003a3.497 3.497 0 0 1 .378 0c.02 0 .04.002.062.004.041.002.083.005.125.01.024.001.048.005.072.007a3.454 3.454 0 0 1 .37.06 3.79 3.79 0 0 1 .458.126l.065.023.114.044.053.02c.055.023.11.047.163.073l.011.005c.05.024.099.048.147.074l.052.029c.035.018.069.037.102.057l.06.036.09.057.061.04.085.06a2.876 2.876 0 0 1 .141.106l.058.045a5.09 5.09 0 0 1 .211.188l.05.046.084.087.037.038c.04.042.078.086.115.13l.015.018c.032.039.064.077.095.118l.035.048.068.092.039.057.058.088.038.062.051.088.036.065.048.09.033.066c.015.032.03.063.043.095l.03.065a2.467 2.467 0 0 1 .065.164l.041.117.017.05c.017.056.034.112.05.17l.007.03c.012.047.023.095.033.143l.013.062.017.091h2.593a.23.23 0 0 0 .233-.227v-2.578h-.984v-1.23h.984v-1.58c0-.745-.458-1.405-1.167-1.682l-2.36-.92H26.28v8.217zm0-9.448h8.1l-2.273-5.197a1.61 1.61 0 0 0-1.481-.954H26.28v6.151zM10.315 26.77c1.433 0 2.598-1.137 2.598-2.535 0-1.397-1.165-2.534-2.598-2.534-.045 0-.089.001-.133.004-1.194.059-2.177.908-2.412 2.02a2.606 2.606 0 0 0-.049.38 2.24 2.24 0 0 0-.003.13c0 1.398 1.165 2.535 2.597 2.535zm-9.054-7.185h.984v1.23H1.26v2.74c0 .036.03.065.067.065h5.18l.018-.09c.004-.021.007-.043.012-.064.01-.047.02-.094.033-.14l.008-.033c.015-.057.032-.113.05-.17l.017-.05.04-.116.025-.063a5.547 5.547 0 0 1 .07-.167l.043-.093c.01-.023.022-.045.034-.067l.046-.09.037-.065a4.985 4.985 0 0 1 .186-.295l.067-.091.037-.05c.03-.039.06-.077.093-.115l.016-.02c.038-.044.076-.088.115-.13l.038-.04.084-.085.05-.047.077-.073.055-.047.079-.066.058-.047a4.97 4.97 0 0 1 .14-.106c.028-.02.056-.04.085-.058l.06-.041.09-.057.06-.036.102-.057.053-.03c.048-.025.097-.049.146-.072.004-.002.008-.005.013-.006.053-.026.108-.05.162-.072l.054-.021.113-.044.066-.023a3.45 3.45 0 0 1 .105-.034 3.946 3.946 0 0 1 .353-.091l.075-.017a3.62 3.62 0 0 1 .294-.044l.072-.008.126-.01c.02 0 .04-.003.061-.003a3.5 3.5 0 0 1 .378 0c.021 0 .041.002.062.004.042.002.084.005.125.01.024.001.048.005.072.007a3.526 3.526 0 0 1 .188.026l.106.018.076.016a3.79 3.79 0 0 1 .281.07l.072.022c.035.01.07.022.104.034l.066.023.114.044.053.02a3.966 3.966 0 0 1 .321.152l.053.029.102.057.06.036.09.057.061.04.084.06a2.428 2.428 0 0 1 .14.105l.059.047c.027.021.053.044.079.066l.054.047.079.074.049.046.084.086.037.04a4.111 4.111 0 0 1 .225.265l.036.048c.023.03.046.061.067.092l.039.058a3.468 3.468 0 0 1 .148.237l.036.065.047.09.033.066.044.095.029.065c.015.034.028.068.041.102l.024.062c.015.039.028.078.041.118l.017.048c.018.056.034.114.05.17l.006.028c.013.048.024.097.035.146l.011.06.019.093h10.896V5.34c0-.34.282-.616.63-.616h9.117c.015 0 .063 0 .093-.055a.092.092 0 0 0-.006-.105l-1.972-2.887a1.033 1.033 0 0 0-.855-.447H15.56a.346.346 0 0 0-.243.099l-1.043 1.017a1.615 1.615 0 0 1-1.135.459H2.282a1.01 1.01 0 0 0-1.021.996v15.784z" fill="#101828"></path>
    <path d="M17.601 6.298h3.989c.805 0 1.461.64 1.461 1.426v13.165c0 .34-.282.615-.63.615h-5.65a.623.623 0 0 1-.63-.615V7.724c0-.787.654-1.426 1.46-1.426zm-.2 13.975h4.389V13.04H17.4v7.233zm0-8.463h4.389V7.723a.198.198 0 0 0-.2-.196H17.6c-.11 0-.2.088-.2.196l.001 4.085z" fill="#101828"></path>
  </symbol>
  <symbol fill="none" xmlns="http://www.w3.org/2000/svg" viewBox="0 0 40 28" id="camper-3">
    <path d="M2.282 1.575H13.14a.346.346 0 0 0 .243-.099L14.426.46A1.615 1.615 0 0 1 15.561 0h16.465a2.3 2.3 0 0 1 1.904.994l1.973 2.888c.28.41.306.934.068 1.368a1.37 1.37 0 0 1-1.205.704H26.28v.837h4.346a2.87 2.87 0 0 1 2.64 1.702l2.545 5.818 2.23.87c1.19.465 1.959 1.573 1.959 2.824v5.388c0 .804-.67 1.458-1.494 1.458h-2.594C35.611 26.634 34.02 28 32.106 28S28.6 26.634 28.3 24.85H14.122C13.82 26.635 12.228 28 10.315 28c-1.912 0-3.504-1.366-3.806-3.15h-5.18C.595 24.85 0 24.27 0 23.556V3.8c0-1.228 1.023-2.226 2.282-2.226zM32.106 26.77c1.432 0 2.598-1.137 2.598-2.535 0-1.397-1.166-2.534-2.598-2.534-1.433 0-2.598 1.137-2.598 2.534 0 1.398 1.165 2.535 2.598 2.535zm-5.826-3.15h2.019l.017-.091.012-.062c.01-.048.022-.096.034-.144l.008-.03c.015-.057.031-.113.05-.17.004-.016.01-.032.016-.049a4.18 4.18 0 0 1 .065-.18l.041-.1.03-.066.043-.095.033-.066.048-.09.035-.065.052-.088.038-.062.058-.088.039-.057c.022-.031.044-.062.068-.092l.035-.048a4.466 4.466 0 0 1 .225-.266l.037-.038.084-.087.05-.046a3.456 3.456 0 0 1 .211-.188l.058-.045a4.16 4.16 0 0 1 .141-.107l.085-.059.06-.04c.03-.02.06-.038.091-.057l.06-.036c.033-.02.067-.038.101-.057l.052-.03a4.71 4.71 0 0 1 .148-.073l.011-.005c.054-.026.108-.05.163-.072.017-.008.036-.014.053-.021l.114-.044.065-.023a4.02 4.02 0 0 1 .458-.126l.076-.016a3.637 3.637 0 0 1 .294-.044l.072-.008.125-.01c.02 0 .041-.003.062-.003a3.497 3.497 0 0 1 .378 0c.02 0 .04.002.062.004.041.002.083.005.125.01.024.001.048.005.072.007a3.454 3.454 0 0 1 .37.06 3.79 3.79 0 0 1 .458.126l.065.023.114.044.053.02c.055.023.11.047.163.073l.011.005c.05.024.099.048.147.074l.052.029c.035.018.069.037.102.057l.06.036.09.057.061.04.085.06a2.876 2.876 0 0 1 .141.106l.058.045a5.09 5.09 0 0 1 .211.188l.05.046.084.087.037.038c.04.042.078.086.115.13l.015.018c.032.039.064.077.095.118l.035.048.068.092.039.057.058.088.038.062.051.088.036.065.048.09.033.066c.015.032.03.063.043.095l.03.065a2.467 2.467 0 0 1 .065.164l.041.117.017.05c.017.056.034.112.05.17l.007.03c.012.047.023.095.033.143l.013.062.017.091h2.593a.23.23 0 0 0 .233-.227v-2.578h-.984v-1.23h.984v-1.58c0-.745-.458-1.405-1.167-1.682l-2.36-.92H26.28v8.217zm0-9.448h8.1l-2.273-5.197a1.61 1.61 0 0 0-1.481-.954H26.28v6.151zM10.315 26.77c1.433 0 2.598-1.137 2.598-2.535 0-1.397-1.165-2.534-2.598-2.534-.045 0-.089.001-.133.004-1.194.059-2.177.908-2.412 2.02a2.606 2.606 0 0 0-.049.38 2.24 2.24 0 0 0-.003.13c0 1.398 1.165 2.535 2.597 2.535zm-9.054-7.185h.984v1.23H1.26v2.74c0 .036.03.065.067.065h5.18l.018-.09c.004-.021.007-.043.012-.064.01-.047.02-.094.033-.14l.008-.033c.015-.057.032-.113.05-.17l.017-.05.04-.116.025-.063a5.547 5.547 0 0 1 .07-.167l.043-.093c.01-.023.022-.045.034-.067l.046-.09.037-.065a4.985 4.985 0 0 1 .186-.295l.067-.091.037-.05c.03-.039.06-.077.093-.115l.016-.02c.038-.044.076-.088.115-.13l.038-.04.084-.085.05-.047.077-.073.055-.047.079-.066.058-.047a4.97 4.97 0 0 1 .14-.106c.028-.02.056-.04.085-.058l.06-.041.09-.057.06-.036.102-.057.053-.03c.048-.025.097-.049.146-.072.004-.002.008-.005.013-.006.053-.026.108-.05.162-.072l.054-.021.113-.044.066-.023a3.45 3.45 0 0 1 .105-.034 3.946 3.946 0 0 1 .353-.091l.075-.017a3.62 3.62 0 0 1 .294-.044l.072-.008.126-.01c.02 0 .04-.003.061-.003a3.5 3.5 0 0 1 .378 0c.021 0 .041.002.062.004.042.002.084.005.125.01.024.001.048.005.072.007a3.526 3.526 0 0 1 .188.026l.106.018.076.016a3.79 3.79 0 0 1 .281.07l.072.022c.035.01.07.022.104.034l.066.023.114.044.053.02a3.966 3.966 0 0 1 .321.152l.053.029.102.057.06.036.09.057.061.04.084.06a2.428 2.428 0 0 1 .14.105l.059.047c.027.021.053.044.079.066l.054.047.079.074.049.046.084.086.037.04a4.111 4.111 0 0 1 .225.265l.036.048c.023.03.046.061.067.092l.039.058a3.468 3.468 0 0 1 .148.237l.036.065.047.09.033.066.044.095.029.065c.015.034.028.068.041.102l.024.062c.015.039.028.078.041.118l.017.048c.018.056.034.114.05.17l.006.028c.013.048.024.097.035.146l.011.06.019.093h10.896V5.34c0-.34.282-.616.63-.616h9.117c.015 0 .063 0 .093-.055a.092.092 0 0 0-.006-.105l-1.972-2.887a1.033 1.033 0 0 0-.855-.447H15.56a.346.346 0 0 0-.243.099l-1.043 1.017a1.615 1.615 0 0 1-1.135.459H2.282a1.01 1.01 0 0 0-1.021.996v15.784z" fill="#101828"></path>
    <path d="M4.844 6.298h7.712c.892 0 1.617.708 1.617 1.577v3.588c0 .87-.726 1.577-1.617 1.577H4.843c-.891 0-1.616-.707-1.616-1.577V7.875c0-.87.725-1.577 1.617-1.577zm-.356 5.165c0 .19.16.347.356.347h7.712a.352.352 0 0 0 .356-.347V7.875c0-.191-.16-.347-.356-.347H4.843a.352.352 0 0 0-.355.347v3.588z" fill="#101828"></path>
  </symbol>
  <symbol fill="none" xmlns="http://www.w3.org/2000/svg" viewBox="0 0 20 20" id="cd">
    <path d="M10 17.5a7.5 7.5 0 1 0 0-15 7.5 7.5 0 0 0 0 15z" stroke="#101828" stroke-width="1.5"></path>
    <path d="M5.417 10A4.583 4.583 0 0 1 10 5.417" stroke="#101828" stroke-width="1.5" stroke-linecap="round"></path>
    <path d="M10 12.083a2.083 2.083 0 1 0 0-4.166 2.083 2.083 0 0 0 0 4.166z" stroke="#101828" stroke-width="1.5"></path>
  </symbol>
  <symbol fill="none" xmlns="http://www.w3.org/2000/svg" viewBox="0 0 20 20" id="change">
    <path d="M14.167 9.167h1.25a1.25 1.25 0 0 0 0-2.5h-1.25v4.166m0 3.334V17.5H15a1.666 1.666 0 1 0 0-3.333h-.833zM2.5 4.167a1.667 1.667 0 1 0 3.333 0 1.667 1.667 0 0 0-3.333 0z" stroke="#101828" stroke-width="1.5" stroke-linecap="round" stroke-linejoin="round"></path>
    <path d="M4.167 5.833v2.5A.833.833 0 0 0 5 9.167h2.5m0 0V15a.833.833 0 0 0 .833.833h2.5M7.5 9.167h3.333" stroke="#101828" stroke-width="1.5" stroke-linecap="round" stroke-linejoin="round"></path>
  </symbol>
  <symbol fill="none" xmlns="http://www.w3.org/2000/svg" viewBox="0 0 20 20" id="engine">
    <path d="m16.475 6.025.008-.008-3.1-3.1-.883.883 1.758 1.758a2.077 2.077 0 0 0-.731 3.415 2.083 2.083 0 0 0 2.306.435v6.009a.833.833 0 0 1-1.666 0v-3.75A1.666 1.666 0 0 0 12.5 10h-.833V4.167A1.667 1.667 0 0 0 10 2.5H5a1.667 1.667 0 0 0-1.667 1.667V17.5h8.334v-6.25h1.25v4.167a2.083 2.083 0 0 0 4.166 0V7.5c0-.575-.233-1.1-.608-1.475zM10 11.25v4.583H5V10h5v1.25zm0-2.917H5V4.167h5v4.166zm5 0a.833.833 0 1 1 0-1.666.833.833 0 0 1 0 1.666z" fill="#101828"></path>
  </symbol>
  <symbol fill="none" xmlns="http://www.w3.org/2000/svg" viewBox="0 0 20 20" id="freezer">
    <path d="M14.625 1.875H5.379c-.69 0-1.25.56-1.25 1.25v12.742c0 .69.56 1.25 1.25 1.25h9.246c.69 0 1.25-.56 1.25-1.25V3.125c0-.69-.56-1.25-1.25-1.25z" stroke="#101828" stroke-width="1.3" stroke-linecap="round" stroke-linejoin="round"></path>
    <path d="M4.13 8.204h11.74m-9.424-1.6V4.08m0 8.071V9.625m-1.18 7.492v.437a.57.57 0 0 0 .567.571h1.03a.57.57 0 0 0 .57-.57v-.438m5.13 0v.437a.57.57 0 0 0 .57.571h1.034a.57.57 0 0 0 .57-.57v-.438" stroke="#101828" stroke-width="1.3" stroke-linecap="round" stroke-linejoin="round"></path>
  </symbol>
  <symbol fill="none" xmlns="http://www.w3.org/2000/svg" viewBox="0 0 20 20" id="gas">
    <path d="M15.67 8.745c-.23-.284-.51-.53-.77-.775-.67-.566-1.43-.973-2.07-1.568-1.49-1.379-1.82-3.655-.87-5.402-.95.217-1.78.708-2.489 1.247-2.59 1.964-3.61 5.43-2.39 8.405.04.095.08.19.08.312 0 .208-.15.397-.35.472-.23.095-.47.038-.66-.113a.556.556 0 0 1-.14-.16c-1.13-1.351-1.31-3.287-.55-4.836-1.669 1.284-2.579 3.457-2.449 5.506.06.472.12.945.29 1.417.14.566.41 1.133.71 1.634 1.08 1.634 2.95 2.805 4.96 3.04 2.139.256 4.428-.112 6.068-1.51 1.83-1.568 2.47-4.08 1.53-6.234l-.13-.245c-.21-.435-.77-1.19-.77-1.19zm-3.16 5.95c-.28.226-.74.472-1.1.566-1.12.378-2.239-.15-2.899-.774 1.19-.264 1.9-1.095 2.11-1.936.17-.756-.15-1.379-.28-2.106-.12-.7-.1-1.294.17-1.946.19.359.39.718.63 1.001.77.945 1.98 1.36 2.24 2.645.04.132.06.264.06.406.03.774-.33 1.624-.93 2.144z" fill="#101828"></path>
  </symbol>
  <symbol fill="none" xmlns="http://www.w3.org/2000/svg" viewBox="0 0 24 24" id="heart-1">
    <path d="M20.84 4.61a5.5 5.5 0 0 0-7.78 0L12 5.67l-1.06-1.06a5.501 5.501 0 1 0-7.78 7.78l1.06 1.06L12 21.23l7.78-7.78 1.06-1.06a5.5 5.5 0 0 0 0-7.78z" stroke="#101828" stroke-width="2.3" stroke-linecap="round" stroke-linejoin="round"></path>
  </symbol>
  <symbol fill="none" xmlns="http://www.w3.org/2000/svg" viewBox="0 0 24 22" id="heart-2">
    <path d="M20.84 3.61a5.5 5.5 0 0 0-7.78 0L12 4.67l-1.06-1.06a5.501 5.501 0 1 0-7.78 7.78l1.06 1.06L12 20.23l7.78-7.78 1.06-1.06a5.5 5.5 0 0 0 0-7.78z" fill="#E44848" stroke="#E44848" stroke-width="2.3" stroke-linecap="round" stroke-linejoin="round"></path>
  </symbol>
  <symbol fill="none" xmlns="http://www.w3.org/2000/svg" viewBox="0 0 20 20" id="hob">
    <path d="M7.5 4.167h10a.833.833 0 0 1 .833.833v10.833a.833.833 0 0 1-.833.834h-10m0-12.5h-5A.833.833 0 0 0 1.667 5v10.833a.833.833 0 0 0 .833.834h5m0-12.5v12.5" stroke="#101828" stroke-width="1.5"></path>
    <path d="M4.583 7.083V8.75m10.834-2.083-5 7.083" stroke="#101828" stroke-width="1.5" stroke-linecap="round" stroke-linejoin="round"></path>
    <path d="M5.417 11.25a.833.833 0 1 0-1.667 0 .833.833 0 0 0 1.667 0zM5.417 13.75a.833.833 0 1 0-1.667 0 .833.833 0 0 0 1.667 0z" fill="#101828"></path>
  </symbol>
  <symbol fill="none" xmlns="http://www.w3.org/2000/svg" viewBox="0 0 20 20" id="kitchen">
    <path d="M15.833 12.5v-10c-4.013 3.828-4.185 6.932-4.166 10h4.166zm0 0v5H15V15M6.667 3.333V17.5m-2.5-14.167v2.5a2.5 2.5 0 1 0 5 0v-2.5" stroke="#101828" stroke-width="1.5" stroke-linecap="round" stroke-linejoin="round"></path>
  </symbol>
  <symbol fill="none" xmlns="http://www.w3.org/2000/svg" viewBox="0 0 20 20" id="microwave">
    <path d="M18.571 3.571H1.43a.714.714 0 0 0-.715.715v11.428a.714.714 0 0 0 .715.715H18.57a.714.714 0 0 0 .715-.715V4.286a.715.715 0 0 0-.715-.715z" stroke="#101828" stroke-width="1.4" stroke-linecap="round" stroke-linejoin="round"></path>
    <path d="M15.714 7.143h.715M15.714 10h.715m-4.286-3.571H4.286a.714.714 0 0 0-.715.714v5.714a.715.715 0 0 0 .715.714h7.857a.714.714 0 0 0 .714-.714V7.143a.714.714 0 0 0-.714-.714z" stroke="#101828" stroke-width="1.4" stroke-linecap="round" stroke-linejoin="round"></path>
  </symbol>
  <symbol fill="none" xmlns="http://www.w3.org/2000/svg" viewBox="0 0 20 20" id="people">
    <path d="M5.667 15.083h-2.75c-.167 0-.25-.083-.334-.166-.083-.084-.166-.25-.083-.417.5-1.417 1.75-2.25 3.167-2.25 1.75 0 3.166-1.5 3.166-3.25S7.417 5.583 5.667 5.583 2.5 7.083 2.5 8.917c0 .833.333 1.666.833 2.25-1.083.583-1.916 1.5-2.416 2.75a2.3 2.3 0 0 0 .333 1.916c.417.584 1 .917 1.667.917h2.75c.5 0 .833-.333.833-.833 0-.5-.333-.834-.833-.834zm-1.5-6.166c0-.917.666-1.584 1.5-1.584.833 0 1.5.75 1.5 1.584 0 .916-.667 1.583-1.5 1.583-.834 0-1.5-.75-1.5-1.583z" fill="#101828"></path>
    <path d="M19.083 13.417A6.244 6.244 0 0 0 16 10c.75-.667 1.167-1.667 1.167-2.833C17.167 5 15.5 3.25 13.5 3.25c-2 0-3.667 1.75-3.667 3.917C9.833 8.25 10.25 9.25 11 10a6.244 6.244 0 0 0-3.083 3.417c-.417.75-.25 1.583.166 2.25.417.666 1.167 1 1.917 1h6.917c.75 0 1.5-.417 1.916-1 .5-.667.584-1.5.25-2.25zM11.417 7.25c0-1.25.916-2.25 2-2.25 1.083 0 2 1 2 2.25s-.917 2.25-2 2.25c-1.084 0-2-1.083-2-2.25zm6 7.5c-.084.083-.25.333-.5.333H10c-.333 0-.5-.25-.5-.333a.711.711 0 0 1-.083-.75c.666-1.75 2.333-2.917 4.083-2.917S16.917 12.25 17.583 14c.084.333-.083.667-.166.75z" fill="#101828"></path>
  </symbol>
  <symbol fill="none" xmlns="http://www.w3.org/2000/svg" viewBox="0 0 20 20" id="petrol">
    <path d="m16.475 6.025.008-.008-3.1-3.1-.883.883 1.758 1.758a2.077 2.077 0 0 0-.731 3.415 2.083 2.083 0 0 0 2.306.435v6.009a.833.833 0 0 1-1.666 0v-3.75A1.667 1.667 0 0 0 12.5 10h-.833V4.167A1.667 1.667 0 0 0 10 2.5H5a1.667 1.667 0 0 0-1.667 1.667V17.5h8.334v-6.25h1.25v4.167a2.083 2.083 0 0 0 4.166 0V7.5c0-.575-.233-1.1-.608-1.475zM10 11.25v4.583H5V10h5v1.25zm0-2.917H5V4.167h5v4.166zm5 0a.833.833 0 1 1 0-1.666.833.833 0 0 1 0 1.666z" fill="#101828"></path>
  </symbol>
  <symbol fill="none" xmlns="http://www.w3.org/2000/svg" viewBox="0 0 20 20" id="radio">
    <path d="M1.667 11.667c0-3.143 0-4.715.976-5.69C3.62 5 5.191 5 8.333 5h3.334c3.142 0 4.714 0 5.69.977.976.975.976 2.547.976 5.69 0 3.142 0 4.714-.976 5.69s-2.548.976-5.69.976H8.333c-3.142 0-4.714 0-5.69-.976s-.976-2.548-.976-5.69z" stroke="#101828" stroke-width="1.3"></path>
    <path d="M4.167 9.167A1.667 1.667 0 0 1 5.833 7.5h8.334a1.666 1.666 0 1 1 0 3.333H5.833a1.667 1.667 0 0 1-1.666-1.666zm3.333 5a1.25 1.25 0 1 1-2.5 0 1.25 1.25 0 0 1 2.5 0z" stroke="#101828" stroke-width="1.3"></path>
    <path d="M12.5 9.583v1.25m-1.667 3.334H15M5.417 5 12.5 1.667" stroke="#101828" stroke-width="1.3" stroke-linecap="round"></path>
  </symbol>
  <symbol fill="none" xmlns="http://www.w3.org/2000/svg" viewBox="0 0 20 20" id="Route">
    <g clip-path="url(#a)" fill-rule="evenodd" clip-rule="evenodd" fill="#101828">
      <path d="M4.167 2.5a1.667 1.667 0 1 0 0 3.333 1.667 1.667 0 0 0 0-3.333zM.833 4.167a3.333 3.333 0 1 1 6.667 0 3.333 3.333 0 0 1-6.667 0zM15.833 14.167a1.667 1.667 0 1 0 0 3.333 1.667 1.667 0 0 0 0-3.333zM12.5 15.833a3.333 3.333 0 1 1 6.667 0 3.333 3.333 0 0 1-6.667 0z"></path>
      <path d="M8.333 4.167c0-.46.373-.834.834-.834h5.25c2.581 0 3.512 3.378 1.242 4.643l-9.67 5.503A.81.81 0 0 0 6.416 15h4.416a.833.833 0 0 1 0 1.667H6.417c-2.582 0-3.512-3.378-1.242-4.643l9.67-5.503A.81.81 0 0 0 14.417 5h-5.25a.833.833 0 0 1-.834-.833z"></path>
    </g>
    <defs>
      <clipPath id="a">
        <path fill="#fff" d="M0 0h20v20H0z"></path>
      </clipPath>
    </defs>
  </symbol>
  <symbol fill="none" xmlns="http://www.w3.org/2000/svg" viewBox="0 0 16 16" id="star">
    <g clip-path="url(#a)">
      <path d="M6.2 4.697 8 1.286l1.8 3.411c.159.302.45.512.785.57l3.8.658-2.688 2.766a1.1 1.1 0 0 0-.3.923l.55 3.818-3.462-1.702a1.1 1.1 0 0 0-.97 0l-3.462 1.702.55-3.818a1.1 1.1 0 0 0-.3-.923L1.614 5.925l3.8-.657a1.1 1.1 0 0 0 .786-.571z" fill="#FFC531" stroke="#FFC531" stroke-width="1.2"></path>
    </g>
    <defs>
      <clipPath id="a">
        <path fill="#fff" d="M0 0h16v16H0z"></path>
      </clipPath>
    </defs>
  </symbol>
  <symbol fill="none" xmlns="http://www.w3.org/2000/svg" viewBox="0 0 32 32" id="TV">
    <path d="M24 26H8c-2.216 0-4-1.784-4-4V12c0-2.216 1.784-4 4-4h16c2.216 0 4 1.784 4 4v10c0 2.216-1.784 4-4 4zM12 30h8M16 8l6-6M16 8l-6-6" stroke="#101828" stroke-width="1.8" stroke-linecap="round" stroke-linejoin="round"></path>
  </symbol>
  <symbol fill="none" xmlns="http://www.w3.org/2000/svg" viewBox="0 0 20 20" id="water">
    <path d="M15.625 12.5c0 3.452-2.173 5.625-5.625 5.625S4.375 15.952 4.375 12.5c0-3.704 4.032-8.705 5.27-10.152a.469.469 0 0 1 .711 0c1.237 1.447 5.269 6.448 5.269 10.152z" stroke="#000" stroke-width="1.5" stroke-miterlimit="10"></path>
    <path d="M13.438 12.813a2.812 2.812 0 0 1-2.813 2.812" stroke="#000" stroke-width="1.5" stroke-linecap="round" stroke-linejoin="round"></path>
  </symbol>
  <symbol fill="none" xmlns="http://www.w3.org/2000/svg" viewBox="0 0 20 20" id="wc">
    <g clip-path="url(#a)">
      <path d="M15 2.5c1.212 0 2.043 1.03 2.525 2.07.476 1.034.765 2.382.804 3.842l.004.338v7.917a.832.832 0 0 1-.866.833l-.104-.012L15 17.095l-2.363.393a.833.833 0 0 1-.302-.005l-.098-.026L10 16.712l-2.237.745a.833.833 0 0 1-1.09-.691l-.006-.1v-2.439C6.224 14.686 5.67 15 5 15c-1.212 0-2.043-1.03-2.525-2.07-.512-1.113-.808-2.592-.808-4.18 0-1.588.295-3.067.808-4.18.46-.994 1.238-1.977 2.362-2.063L5 2.5h10zm0 1.667H7.318c.075.133.144.268.206.404.513 1.112.81 2.59.81 4.179v6.76l1.403-.467a.834.834 0 0 1 .526 0l2.305.768 2.295-.383a.836.836 0 0 1 .274 0l1.53.255V8.75c0-1.403-.265-2.633-.656-3.48-.423-.92-.842-1.103-1.011-1.103zm-10 0c-.17 0-.588.183-1.01 1.102-.393.848-.657 2.078-.657 3.481s.264 2.633.656 3.48c.423.92.842 1.103 1.011 1.103.17 0 .587-.183 1.01-1.102.392-.848.657-2.078.657-3.481s-.265-2.633-.656-3.48C5.587 4.35 5.169 4.166 5 4.166zm0 2.916c.46 0 .833.746.833 1.667 0 .92-.373 1.667-.833 1.667-.46 0-.833-.746-.833-1.667 0-.92.373-1.667.833-1.667z" fill="#101828"></path>
    </g>
    <defs>
      <clipPath id="a">
        <path fill="#fff" d="M0 0h20v20H0z"></path>
      </clipPath>
    </defs>
  </symbol>
</svg>
